<?xml version="1.0" encoding="UTF-8"?><svg width="134px" height="160px" viewBox="0 0 134 160" version="1.1" xmlns="http://www.w3.org/2000/svg" xmlns:xlink="http://www.w3.org/1999/xlink"><title>FLAME</title><desc>Created with Sketch.</desc><g id="FLAME" stroke="none" stroke-width="1" fill="none" fill-rule="evenodd"><g id="Group-23-Copy-4" fill="#E5E5E5"><g id="Group-18"><path d="M74.494157,2.84448663 C75.1294023,3.36050628 75.7096526,3.94075657 76.2256723,4.57600189 L119.707417,58.1017289 C128.660232,68.8126861 134,82.3199872 134,97 C134,131.793939 104.003078,160 67,160 C29.9969218,160 0,131.793939 0,97 C0,95.4031446 0.0631830655,93.8201653 0.187326709,92.253152 C0.125390216,91.8399119 0.0963251477,91.424506 0.100867751,91.0113935 L0.696107451,36.8792104 C0.782681806,29.0059809 5.18099857,23.1381062 12.545825,24.271297 C14.0134649,24.4971157 17.1104275,25.3843802 18.4935686,26.1056125 L33.8,34.0868425 L57.7743277,4.57600189 C61.9132364,-0.519196212 69.3989589,-1.294422 74.494157,2.84448663 Z" id="Combined-Shape"/></g></g></g></svg>