<?xml version="1.0" encoding="UTF-8"?>
<svg width="141px" height="207px" viewBox="0 0 141 207" version="1.1" xmlns="http://www.w3.org/2000/svg" xmlns:xlink="http://www.w3.org/1999/xlink">
    <!-- Generator: Sketch 53.2 (72643) - https://sketchapp.com -->
    <title>bear</title>
    <desc>Created with Sketch.</desc>
    <defs>
        <path d="M60.0945269,5.96247145e-15 L88.2184055,1.0658141e-14 C103.175327,7.91059908e-15 115.91867,10.8607743 118.289395,25.6286166 L147.923356,210.225953 C150.589448,226.833702 139.287501,242.458237 122.679752,245.124329 C121.083394,245.380597 119.469164,245.509341 117.852367,245.509341 L30.4605657,245.509341 C13.6401801,245.509341 0.00456338698,231.873724 0.00456338698,215.053339 C0.00456338698,213.436542 0.133307795,211.822311 0.389575956,210.225953 L30.0235371,25.6286166 C32.3942629,10.8607743 45.1376051,1.3405683e-14 60.0945269,1.0658141e-14 Z" id="path-1"></path>
    </defs>
    <g id="bear" stroke="none" stroke-width="1" fill="none" fill-rule="evenodd">
        <g id="Group" transform="translate(-5.000000, 21.000000)">
            <g id="Rectangle-+-Rectangle-Copy-3-Mask-Copy-Copy-Copy" transform="translate(0.502686, 7.909842)">
                <mask id="mask-2" fill="white">
                    <use xlink:href="#path-1"></use>
                </mask>
                <use id="Mask" fill="#A56644" xlink:href="#path-1"></use>
            </g>
            <path d="M73.7820046,51.413976 L76.7206819,51.413976 C82.6919188,51.413976 87.5325627,56.25462 87.5325627,62.2258569 L87.5325627,93.5371948 C87.5325627,99.5084317 82.6919188,104.349076 76.7206819,104.349076 L73.7820046,104.349076 C67.8107677,104.349076 62.9701237,99.5084317 62.9701237,93.5371948 L62.9701237,62.2258569 C62.9701237,56.25462 67.8107677,51.413976 73.7820046,51.413976 Z" id="Rectangle-9-Copy-28" fill="#E5A259"></path>
            <path d="M73.5982941,51.413976 L76.9043923,51.413976 C79.4246723,51.413976 81.4677629,53.4570667 81.4677629,55.9773467 L81.4677629,55.9773467 C81.4677629,58.4976267 79.4246723,60.5407173 76.9043923,60.5407173 L73.5982941,60.5407173 C71.0780141,60.5407173 69.0349235,58.4976267 69.0349235,55.9773467 L69.0349235,55.9773467 C69.0349235,53.4570667 71.0780141,51.413976 73.5982941,51.413976 Z" id="Mask-Copy-41" fill="#4B4B4B"></path>
            <g id="Group-Copy-5" transform="translate(56.000000, 140.000000)" fill="#BB7149" stroke="#BB7149" stroke-linecap="round" stroke-linejoin="round" stroke-width="4.75113663">
                <path d="M3.56227185,23.0423375 C6.02409745,15.8753006 12.8027461,10.7266054 20.7794761,10.7266054 C28.7562061,10.7266054 35.5348547,15.8753006 37.9966803,23.0423375 L3.56227185,23.0423375 Z" id="Combined-Shape" transform="translate(20.779476, 16.884471) rotate(-45.000000) translate(-20.779476, -16.884471) "></path>
                <path d="M-0.395807983,23.0423375 C2.06601762,15.8753006 8.84466623,10.7266054 16.8213963,10.7266054 C24.7981263,10.7266054 31.5767749,15.8753006 34.0386005,23.0423375 L-0.395807983,23.0423375 Z" id="Combined-Shape" transform="translate(16.821396, 16.884471) scale(-1, 1) rotate(-45.000000) translate(-16.821396, -16.884471) "></path>
                <path d="M1.54643805,25.6122087 C2.86804178,21.9690265 6.46892868,19.3554559 10.7038628,19.3554559 C14.938797,19.3554559 18.5396839,21.9690265 19.8612876,25.6122087 L1.54643805,25.6122087 Z" id="Combined-Shape" transform="translate(10.703863, 22.483832) scale(-1, 1) rotate(-15.000000) translate(-10.703863, -22.483832) "></path>
                <path d="M18.1703733,25.6122087 C19.4919771,21.9690265 23.092864,19.3554559 27.3277981,19.3554559 C31.5627322,19.3554559 35.1636191,21.9690265 36.4852229,25.6122087 L18.1703733,25.6122087 Z" id="Combined-Shape" transform="translate(27.327798, 22.483832) rotate(-15.000000) translate(-27.327798, -22.483832) "></path>
            </g>
            <path d="M66.4573836,66.3209868 L66.4573836,66.3209868 C68.383344,66.3209868 69.9446434,67.8822862 69.9446434,69.8082467 L69.9446434,73.3181552 L62.9701237,73.3181552 L62.9701237,69.8082467 C62.9701237,67.8822862 64.5314232,66.3209868 66.4573836,66.3209868 Z" id="Rectangle-Copy-5" fill="#FFFFFF"></path>
            <path d="M15.1628034,118.123679 L134.15648,118.123679 C135.948076,118.123679 137.475524,119.422398 137.763634,121.190676 L141.727769,145.520606 C142.052359,147.512782 140.700513,149.390892 138.708337,149.715482 C138.51403,149.747141 138.317483,149.763048 138.120614,149.763048 L11.431853,149.763048 C9.41340673,149.763048 7.77713273,148.126774 7.77713273,146.108328 C7.77713273,145.922868 7.79124959,145.737676 7.81936099,145.554359 L11.5503114,121.22443 C11.8238366,119.440742 13.3582652,118.123679 15.1628034,118.123679 Z" id="Rectangle" fill="#FF4B4B"></path>
            <path d="M38.6715215,114.168757 L56.5692688,114.168757 C59.5969382,114.168757 62.0513492,116.623168 62.0513492,119.650838 C62.0513492,119.957238 62.0256616,120.263099 61.9745564,120.565207 L52.6412625,175.738887 C52.1951217,178.376243 49.9108005,180.306597 47.2359749,180.306597 L29.3382276,180.306597 C26.3105582,180.306597 23.8561472,177.852186 23.8561472,174.824517 C23.8561472,174.518117 23.8818347,174.212256 23.93294,173.910147 L33.2662339,118.736468 C33.7123746,116.099111 35.9966959,114.168757 38.6715215,114.168757 Z" id="Rectangle" fill="#FF4B4B"></path>
            <rect id="Rectangle-35-Copy-179" fill="#FFFFFF" x="76.0094432" y="27.9886733" width="12.4328395" height="19.1661567" rx="6.21641973"></rect>
            <rect id="Rectangle-35-Copy-180" fill="#FFFFFF" transform="translate(67.367104, 37.571752) scale(-1, 1) translate(-67.367104, -37.571752) " x="61.1506838" y="27.9886733" width="12.4328395" height="19.1661567" rx="6.21641973"></rect>
            <rect id="Rectangle-35-Copy-181" fill="#4B4B4B" transform="translate(68.276824, 38.180201) scale(-1, 1) translate(-68.276824, -38.180201) " x="65.6992836" y="33.1604934" width="5.15507978" height="10.0394154" rx="2.57753989"></rect>
            <rect id="Rectangle-35-Copy-182" fill="#4B4B4B" transform="translate(81.012903, 38.180201) scale(-1, 1) translate(-81.012903, -38.180201) " x="78.4353631" y="33.4647181" width="5.15507978" height="9.43096602" rx="2.57753989"></rect>
            <rect id="Rectangle-Copy-944" fill="#A56644" x="55.995604" y="24.3379768" width="19.1041192" height="14.2985614"></rect>
            <rect id="Rectangle-Copy-945" fill="#A56644" x="74.1900033" y="20.6872803" width="19.1041192" height="10.0394154"></rect>
            <path d="M30.8181422,2.35644972 L30.8181422,2.35644972 C34.4124781,2.3506541 37.3309614,5.25974078 37.336757,8.85407669 C37.3367683,8.86107143 37.3367683,8.86806618 37.336757,8.87506092 L37.3323429,11.6135413 C37.326525,15.2228855 34.4020239,18.1473882 30.7926797,18.1532081 L30.7926797,18.1532081 C27.1983438,18.1590037 24.2798605,15.249917 24.2740649,11.6555811 C24.2740536,11.6485864 24.2740536,11.6415916 24.2740649,11.6345969 L24.278479,8.89611649 C24.2842969,5.28677223 27.208798,2.36226953 30.8181422,2.35644972 Z" id="Rectangle-Copy-72" fill="#A56644" transform="translate(30.805411, 10.254829) rotate(-42.000000) translate(-30.805411, -10.254829) "></path>
            <path d="M119.49921,2.35644972 L119.49921,2.35644972 C123.093546,2.3506541 126.01203,5.25974078 126.017825,8.85407669 C126.017837,8.86107143 126.017837,8.86806618 126.017825,8.87506092 L126.013411,11.6135413 C126.007593,15.2228855 123.083092,18.1473882 119.473748,18.1532081 L119.473748,18.1532081 C115.879412,18.1590037 112.960929,15.249917 112.955133,11.6555811 C112.955122,11.6485864 112.955122,11.6415916 112.955133,11.6345969 L112.959547,8.89611649 C112.965365,5.28677223 115.889866,2.36226953 119.49921,2.35644972 Z" id="Rectangle-Copy-1320" fill="#A56644" transform="translate(119.486479, 10.254829) scale(-1, 1) rotate(-42.000000) translate(-119.486479, -10.254829) "></path>
        </g>
    </g>
</svg>