<?xml version="1.0" encoding="UTF-8"?>
<svg width="141px" height="207px" viewBox="0 0 141 207" version="1.1" xmlns="http://www.w3.org/2000/svg" xmlns:xlink="http://www.w3.org/1999/xlink">
    <!-- Generator: Sketch 53.2 (72643) - https://sketchapp.com -->
    <title>woman1</title>
    <desc>Created with Sketch.</desc>
    <defs>
        <path d="M24.4645712,7.27595761e-12 L24.4645712,7.27595761e-12 C37.8338042,7.27350173e-12 48.6717088,10.8379047 48.6717088,24.2071376 L48.6717088,35.8005083 L0.257433591,35.8005083 L0.257433591,24.2071376 C0.257433591,10.8379047 11.0953383,7.2784135e-12 24.4645712,7.27595761e-12 Z" id="path-1"></path>
        <path d="M1.09505048,4.79532758 C2.70965367,4.06263899 4.32425686,3.3299504 5.93886005,2.59726181 C7.65357356,1.81914429 9.36828707,1.04102678 11.0830006,0.262909263 L11.0830006,0.262909263 C12.021579,-0.163006952 13.1277204,0.252587858 13.5536366,1.19116625 C13.6635615,1.43340425 13.7204301,1.69634315 13.7204301,1.96235578 L13.7204301,7.45998825 C13.7204301,11.2487804 10.6490072,14.3202033 6.86021505,14.3202033 L1.86624,14.3202033 C0.83554411,14.3202033 1.26223843e-16,13.4846592 0,12.4539633 L2.22044605e-16,6.49477409 C-1.92818976e-16,5.76251616 0.428237422,5.09791977 1.09505048,4.79532758 Z" id="path-3"></path>
    </defs>
    <g id="woman1" stroke="none" stroke-width="1" fill="none" fill-rule="evenodd">
        <g id="Group" transform="translate(17.000000, 24.000000)">
            <rect id="Rectangle-Copy-1852" fill="#3D3D3D" x="78.5806452" y="80.6289708" width="16.5268817" height="72.2236341" rx="8.24256001"></rect>
            <rect id="Rectangle-Copy-1853" fill="#3D3D3D" x="18.7096774" y="83.4307497" width="16.5268817" height="72.2236341" rx="8.24256001"></rect>
            <rect id="Rectangle-Copy-1854" fill="#3D3D3D" x="82.3225806" y="68.1766201" width="16.5268817" height="52.2998729" rx="8.24256001"></rect>
            <path d="M42.4632637,0 L42.6657685,0 C64.7398389,-4.05494095e-15 82.6344086,17.8945697 82.6344086,39.9686401 L82.6344086,103.856011 C82.6344086,125.930081 64.7398389,143.824651 42.6657685,143.824651 L42.4632637,143.824651 C20.3891933,143.824651 2.49462366,125.930081 2.49462366,103.856011 L2.49462366,39.9686401 C2.49462366,17.8945697 20.3891933,-3.05048641e-15 42.4632637,-7.10542736e-15 Z" id="Rectangle-Copy-1855" fill="#3D3D3D"></path>
            <rect id="Rectangle-Copy-1856" fill="#3D3D3D" x="62.9892473" y="35.8005083" width="40.5376344" height="93.0813215" rx="18.6624"></rect>
            <g id="Group-12-Copy-3" transform="translate(77.432287, 146.277416) scale(-1, 1) rotate(10.000000) translate(-77.432287, -146.277416) translate(52.432287, 110.277416)">
                <g id="Group-2" transform="translate(24.713370, 39.490107) rotate(-16.000000) translate(-24.713370, -39.490107) translate(7.213370, 10.990107)" fill="#A56644">
                    <path d="M17.057179,0.808320764 L17.0672715,0.80832949 C20.9642158,0.811698889 24.1224711,3.96995843 24.1258352,7.86690277 L24.1582538,45.4196351 C24.1616153,49.3134498 21.0077799,52.4727352 17.1139653,52.4760966 C17.1099045,52.4761001 17.1058437,52.4761001 17.1017829,52.4760966 L17.0916904,52.4760879 C13.1947461,52.4727185 10.0364908,49.314459 10.0331266,45.4175146 L10.000708,7.86478225 C9.99734658,3.97096764 13.151182,0.811682215 17.0449966,0.808320756 C17.0490574,0.80831725 17.0531182,0.808317253 17.057179,0.808320764 Z" id="Rectangle-Copy-1187" transform="translate(17.079481, 26.642209) rotate(24.000000) translate(-17.079481, -26.642209) "></path>
                    <path d="M8.55930256,37.0703865 L15.5292402,37.0784895 C18.0131972,37.0813773 20.026122,39.0943021 20.0290098,41.5782591 L20.0371128,48.5481968 C20.0400053,51.0362434 18.0253899,53.0555485 15.5373432,53.058441 C15.5338517,53.0584451 15.5303601,53.0584451 15.5268685,53.058441 L8.55693084,53.050338 C6.07297386,53.0474503 4.06004904,51.0345254 4.05716128,48.5505685 L4.04905828,41.5806308 C4.04616577,39.0925842 6.06078122,37.073279 8.54882784,37.0703865 C8.55231942,37.0703824 8.55581099,37.0703824 8.55930256,37.0703865 Z" id="Rectangle-Copy-1188" transform="translate(12.043086, 45.064414) rotate(-315.000000) translate(-12.043086, -45.064414) "></path>
                </g>
                <path d="M26.0810728,2.07840849 L27.7306122,2.08079069 C33.0346229,2.08845052 37.3326648,6.38591222 37.3410406,11.6899219 L37.3895978,42.4388597 C37.3979916,47.754229 33.0958379,52.0699917 27.7804686,52.0783855 C27.7707695,52.0784008 27.7610704,52.0784014 27.7513713,52.0783874 L26.1018318,52.0760052 C20.7978211,52.0683454 16.4997792,47.7708837 16.4914034,42.4668741 L16.4428462,11.7179362 C16.4344525,6.40256689 20.7366062,2.08680422 26.0519754,2.07841046 C26.0616745,2.07839514 26.0713737,2.07839449 26.0810728,2.07840849 Z" id="Rectangle-Copy-1187" fill="#FFB100" transform="translate(26.916222, 27.078398) rotate(13.000000) translate(-26.916222, -27.078398) "></path>
            </g>
            <g id="Group-12-Copy-3" transform="translate(33.417095, 146.277416) rotate(10.000000) translate(-33.417095, -146.277416) translate(8.417095, 110.277416)">
                <g id="Group-2" transform="translate(24.713370, 39.490107) rotate(-16.000000) translate(-24.713370, -39.490107) translate(7.213370, 10.990107)" fill="#A56644">
                    <path d="M17.057179,0.808320764 L17.0672715,0.80832949 C20.9642158,0.811698889 24.1224711,3.96995843 24.1258352,7.86690277 L24.1582538,45.4196351 C24.1616153,49.3134498 21.0077799,52.4727352 17.1139653,52.4760966 C17.1099045,52.4761001 17.1058437,52.4761001 17.1017829,52.4760966 L17.0916904,52.4760879 C13.1947461,52.4727185 10.0364908,49.314459 10.0331266,45.4175146 L10.000708,7.86478225 C9.99734658,3.97096764 13.151182,0.811682215 17.0449966,0.808320756 C17.0490574,0.80831725 17.0531182,0.808317253 17.057179,0.808320764 Z" id="Rectangle-Copy-1187" transform="translate(17.079481, 26.642209) rotate(24.000000) translate(-17.079481, -26.642209) "></path>
                    <path d="M8.55930256,37.0703865 L15.5292402,37.0784895 C18.0131972,37.0813773 20.026122,39.0943021 20.0290098,41.5782591 L20.0371128,48.5481968 C20.0400053,51.0362434 18.0253899,53.0555485 15.5373432,53.058441 C15.5338517,53.0584451 15.5303601,53.0584451 15.5268685,53.058441 L8.55693084,53.050338 C6.07297386,53.0474503 4.06004904,51.0345254 4.05716128,48.5505685 L4.04905828,41.5806308 C4.04616577,39.0925842 6.06078122,37.073279 8.54882784,37.0703865 C8.55231942,37.0703824 8.55581099,37.0703824 8.55930256,37.0703865 Z" id="Rectangle-Copy-1188" transform="translate(12.043086, 45.064414) rotate(-315.000000) translate(-12.043086, -45.064414) "></path>
                </g>
                <path d="M26.0810728,2.07840849 L27.7306122,2.08079069 C33.0346229,2.08845052 37.3326648,6.38591222 37.3410406,11.6899219 L37.3895978,42.4388597 C37.3979916,47.754229 33.0958379,52.0699917 27.7804686,52.0783855 C27.7707695,52.0784008 27.7610704,52.0784014 27.7513713,52.0783874 L26.1018318,52.0760052 C20.7978211,52.0683454 16.4997792,47.7708837 16.4914034,42.4668741 L16.4428462,11.7179362 C16.4344525,6.40256689 20.7366062,2.08680422 26.0519754,2.07841046 C26.0616745,2.07839514 26.0713737,2.07839449 26.0810728,2.07840849 Z" id="Rectangle-Copy-1187" fill="#FFB100" transform="translate(26.916222, 27.078398) rotate(13.000000) translate(-26.916222, -27.078398) "></path>
            </g>
            <g id="Rectangle-Copy-1857" transform="translate(31.000000, 105.000000)">
                <mask id="mask-2" fill="white">
                    <use xlink:href="#path-1"></use>
                </mask>
                <use id="Mask" fill="#FFB100" xlink:href="#path-1"></use>
            </g>
            <path d="M39,135 L72,135 L72,213.26752 C72,215.328912 70.3289118,217 68.26752,217 L42.73248,217 C40.6710882,217 39,215.328912 39,213.26752 L39,135 Z" id="Rectangle-Copy-1858" fill="#1CB0F6"></path>
            <rect id="Rectangle-Copy-80" fill="#FFB100" x="31.4946237" y="30.5082592" width="47.0860215" height="55.7242694" rx="22.5504"></rect>
            <path d="M55.0376344,42.0266836 L55.0376344,42.0266836 C68.0400802,42.0266836 78.5806452,52.5672486 78.5806452,65.5696944 L78.5806452,84.0638491 C78.5806452,90.7633724 73.1496084,96.1944091 66.4500851,96.1944091 L43.6251837,96.1944091 C36.9256604,96.1944091 31.4946237,90.7633724 31.4946237,84.0638491 L31.4946237,65.5696944 C31.4946237,52.5672486 42.0351886,42.0266836 55.0376344,42.0266836 Z" id="Rectangle-12-Copy-35" fill="#A56644"></path>
            <g id="Oval-+-Rectangle-Mask-Copy-2" transform="translate(60.182796, 76.893266)">
                <mask id="mask-4" fill="white">
                    <use xlink:href="#path-3"></use>
                </mask>
                <use id="Mask" fill="#932626" xlink:href="#path-3"></use>
                <ellipse id="Oval" fill="#FF4B4B" mask="url(#mask-4)" cx="-0.467741935" cy="14.1645489" rx="5.14516129" ry="5.13659466"></ellipse>
                <rect id="Rectangle" fill="#FFFFFF" mask="url(#mask-4)" x="-4.67741935" y="-2.80177891" width="16.2150538" height="8.71664549" rx="3.11040001"></rect>
            </g>
            <g id="Group-25-Copy-2" transform="translate(0.000000, 59.771283)"></g>
            <rect id="Rectangle-35-Copy-13" fill="#FFFFFF" x="57.3763441" y="54.4790343" width="14.0322581" height="19.6124524" rx="6.99840001"></rect>
            <rect id="Rectangle-35-Copy-14" fill="#FFFFFF" transform="translate(45.994624, 64.285260) scale(-1, 1) translate(-45.994624, -64.285260) " x="38.9784946" y="54.4790343" width="14.0322581" height="19.6124524" rx="6.99840001"></rect>
            <rect id="Rectangle-35-Copy-42" fill="#4B4B4B" transform="translate(47.241935, 64.285260) scale(-1, 1) translate(-47.241935, -64.285260) " x="44.2795699" y="59.4599746" width="5.92473118" height="9.65057179" rx="2.95488"></rect>
            <rect id="Rectangle-35-Copy-43" fill="#4B4B4B" transform="translate(63.145161, 64.285260) scale(-1, 1) translate(-63.145161, -64.285260) " x="60.1827957" y="59.4599746" width="5.92473118" height="9.65057179" rx="2.95488"></rect>
            <path d="M72.344086,70.978399 C67.3548387,72.2057354 63.8207885,73.7622792 61.7419355,75.6480305" id="Path-Copy-2" stroke="#A56644" stroke-width="4.66560001"></path>
            <path d="M55.193478,63.1956798 L55.193478,63.1956798 C56.2209349,63.1956798 57.0750507,63.9869776 57.1533883,65.0114438 L57.9971766,76.0461536 C58.1155808,77.5945937 56.9563077,78.9458379 55.4078677,79.064242 C55.3365346,79.0696967 55.2650193,79.0724269 55.193478,79.0724269 L55.193478,79.0724269 C53.6405175,79.0724269 52.3815944,77.8135038 52.3815944,76.2605433 C52.3815944,76.189002 52.3843246,76.1174867 52.3897793,76.0461536 L53.2335676,65.0114438 C53.3119052,63.9869776 54.166021,63.1956798 55.193478,63.1956798 Z" id="Rectangle-Copy-1860" fill="#8D4D2B"></path>
            <rect id="Rectangle-Copy-1861" fill="#8D4D2B" x="51.4516129" y="73.4688691" width="7.48387097" height="7.47141042" rx="3.73248001"></rect>
            <rect id="Rectangle-Copy-1862" fill="#3D3D3D" x="34.6129032" y="19.9237611" width="13.4086022" height="33.3100381" rx="6.70430108"></rect>
            <polygon id="Rectangle-Copy-81" fill="#A56644" points="48.3333333 94.3265565 61.1182796 94.3265565 61.1182796 105.533672 48.3333333 105.533672"></polygon>
            <path d="M84.313518,55.5726654 C95.4530935,52.6715253 103.654309,52.6774455 108.917165,55.5904259" id="Path-91-Copy-4" stroke="#3D3D3D" stroke-width="14.30784" stroke-linecap="round" stroke-linejoin="round" transform="translate(96.615341, 54.495834) scale(-1, 1) rotate(-60.000000) translate(-96.615341, -54.495834) "></path>
            <rect id="Rectangle-Copy-89" fill="#A56644" x="75.7741935" y="60.3939009" width="9.04301075" height="13.6975858" rx="4.51008001"></rect>
            <rect id="Rectangle-Copy-90" fill="#A56644" x="24.9462366" y="60.3939009" width="9.04301075" height="13.6975858" rx="4.51008001"></rect>
            <path d="M43.3401462,96.1944091 L67.0469505,96.1944091 C67.9058638,96.1944091 68.6021505,96.8906959 68.6021505,97.7496092 L68.6021505,110.515956 C68.6021505,111.37487 67.9058638,112.071156 67.0469505,112.071156 L43.3401462,112.071156 C42.481233,112.071156 41.7849462,111.37487 41.7849462,110.515956 L41.7849462,97.7496092 C41.7849462,96.8906959 42.481233,96.1944091 43.3401462,96.1944091 Z" id="Rectangle-Copy-103" fill="#FFB100"></path>
            <rect id="Rectangle-Copy-1846" fill="#3D3D3D" x="2.49462366" y="71.2897078" width="16.5268817" height="72.2236341" rx="8.24256001"></rect>
            <path d="M-6.52137951,33.4418087 C8.28428068,29.4407147 19.1846305,29.4485833 26.1796698,33.4654143" id="Path-91-Copy-3" stroke="#3D3D3D" stroke-width="14.30784" stroke-linecap="round" stroke-linejoin="round" transform="translate(9.829145, 31.956146) rotate(-60.000000) translate(-9.829145, -31.956146) "></path>
        </g>
        <polygon id="Rectangle" fill="#3D3D3D" points="56 159 88.778482 159 88.778482 165 56 165"></polygon>
    </g>
</svg>