<?xml version="1.0" encoding="UTF-8"?>
<svg width="141px" height="207px" viewBox="0 0 141 207" version="1.1" xmlns="http://www.w3.org/2000/svg" xmlns:xlink="http://www.w3.org/1999/xlink">
    <!-- Generator: Sketch 56.3 (81716) - https://sketch.com -->
    <title>girl</title>
    <desc>Created with Sketch.</desc>
    <defs>
        <path d="M29.4907407,0 L30.6822696,0 C46.969556,-6.54463965e-15 60.1730104,13.2034544 60.1730104,29.4907407 L60.1730104,45.7946805 C60.1730104,53.0775496 54.2690785,58.9814815 46.9862094,58.9814815 L13.186801,58.9814815 C5.9039319,58.9814815 2.66825107e-15,53.0775496 0,45.7946805 L0,29.4907407 C-1.99461731e-15,13.2034544 13.2034544,-4.11350139e-15 29.4907407,0 Z" id="path-1"></path>
        <path d="M8.78200692,4.53703704 L0.716898524,4.53703704 C0.320966402,4.53703704 0,4.76273711 0,5.04115226 L0,5.16718107 C0,8.57776668 3.93183843,11.3425926 8.78200692,11.3425926 L16.8471153,11.3425926 C17.2430474,11.3425926 17.5640138,11.1168925 17.5640138,10.8384774 L17.5640138,10.7124486 C17.5640138,7.30186295 13.6321754,4.53703704 8.78200692,4.53703704 Z" id="path-3"></path>
    </defs>
    <g id="girl" stroke="none" stroke-width="1" fill="none" fill-rule="evenodd">
        <g id="Group-2" transform="translate(22.000000, 56.000000)">
            <rect id="Rectangle-Copy-2761" fill="#FFC6B7" x="8.78200692" y="30.787037" width="16.2629758" height="12.3148148" rx="6.15740741"></rect>
            <path d="M47.6711915,4.54747351e-13 C64.0494371,4.51738716e-13 77.8870486,12.1476972 80.0083445,28.3879876 L86.2629265,76.2720308 C86.3788075,77.159196 85.753558,77.9723255 84.8663928,78.0882065 C84.7968218,78.0972938 84.7267338,78.1018519 84.6565718,78.1018519 L11.3221565,78.1018519 C10.4274551,78.1018519 9.70215639,77.3765531 9.70215639,76.4818518 C9.70215639,76.4161281 9.70615602,76.3504653 9.7141331,76.2852276 L15.567256,28.417477 C17.5510257,12.1938993 31.3267792,4.57749771e-13 47.6711915,4.54747351e-13 Z" id="Rectangle-Copy-2746" fill="#A570FF"></path>
            <rect id="Rectangle-Copy-2762" fill="#FFC6B7" x="69.2802768" y="30.787037" width="16.2629758" height="12.3148148" rx="6.15740741"></rect>
            <polygon id="Rectangle-Copy-2747" fill="#FFC6B7" points="42.283737 61.5740741 53.3425606 61.5740741 53.3425606 74.8611111 42.283737 74.8611111"></polygon>
            <g id="Rectangle-Copy-170-+-Rectangle-Copy-170-Mask-Copy-Copy-Copy-Copy-Copy-Copy-Copy-Copy-Copy-Copy-Copy-Copy-Copy" transform="translate(17.564014, 4.861111)">
                <mask id="mask-2" fill="white">
                    <use xlink:href="#path-1"></use>
                </mask>
                <use id="Mask" fill="#FFC6B7" xlink:href="#path-1"></use>
                <path d="M30.0865052,32.0833333 C30.7342711,32.0833333 31.2781236,32.5710819 31.3483737,33.2150272 L32.5513792,44.2423413 C32.6998892,45.6036536 31.7167187,46.8276065 30.3554063,46.9761165 C30.2661037,46.9858588 30.1763376,46.9907407 30.0865052,46.9907407 C28.7171161,46.9907407 27.6070069,45.8806315 27.6070069,44.5112424 C27.6070069,44.42141 27.6118888,44.3316439 27.6216311,44.2423413 L28.8246367,33.2150272 C28.8948868,32.5710819 29.4387393,32.0833333 30.0865052,32.0833333 Z" id="Rectangle" fill="#EE9583" mask="url(#mask-2)"></path>
                <g id="Group-125" mask="url(#mask-2)">
                    <g transform="translate(32.525952, 30.462963)" id="Group-3-Copy-24">
                        <g transform="translate(8.782007, 5.671296) scale(-1, 1) translate(-8.782007, -5.671296) ">
                            <g id="Group-3-Copy-5" transform="translate(8.782007, 5.671296) scale(-1, 1) translate(-8.782007, -5.671296) ">
                                <g id="Rectangle-35-Copy-30" transform="translate(8.782007, 5.671296) scale(-1, 1) translate(-8.782007, -5.671296) ">
                                    <g id="Rectangle-+-Rectangle-35-Copy-30-Mask">
                                        <g>
                                            <path d="M0.972000051,0 L8.78200692,0 C13.6321754,-8.90961498e-16 17.5640138,3.93183843 17.5640138,8.78200692 L17.5640138,9.72222222 L3.94025847,8.32570965 C1.70197734,8.09627308 2.75546715e-16,6.21091503 0,3.96090535 L0,0.972000051 C4.52807144e-17,0.435179246 0.435179246,-1.24099203e-17 0.972000051,0 Z" id="Rectangle" fill="#A570FF"></path>
                                            <mask id="mask-4" fill="white">
                                                <use xlink:href="#path-3"></use>
                                            </mask>
                                            <use id="Combined-Shape" fill="#FFFFFF" fill-rule="nonzero" xlink:href="#path-3"></use>
                                            <rect id="Rectangle-35-Copy-30" fill="#4B4B4B" mask="url(#mask-4)" x="7.17562319" y="0.972222222" width="6.83044983" height="8.75" rx="3.38580025"></rect>
                                        </g>
                                    </g>
                                </g>
                            </g>
                        </g>
                    </g>
                </g>
            </g>
            <path d="M78.5237611,30.787037 L65.3966674,30.787037 C56.735132,30.787037 49.1184288,25.0566962 46.7180735,16.7344075 L43.3596425,4.09036757 C44.5700803,3.93906006 45.8033145,3.86111111 47.0547546,3.86111111 L48.2462835,3.86111111 C63.3270032,3.86111111 76.7638694,16.1807934 78.5237611,30.787037 Z" id="Path" fill="#A570FF"></path>
            <path d="M37.1057591,80.5735436 L36.6234784,80.8080174 C35.091803,81.5526827 33.9731462,82.9429879 33.5735671,84.5985519 L14.096165,165.29869 C13.5881745,167.403432 14.8825972,169.52147 16.9873391,170.029461 C17.2885369,170.102157 17.5972909,170.138889 17.9071373,170.138889 L36.0865201,170.138889 C38.2516974,170.138889 40.0069204,168.383666 40.0069204,166.218489 L40.0069204,82.3889276 C40.0069204,81.2741058 39.1031788,80.3703642 37.988357,80.3703642 C37.6825657,80.3703642 37.3807708,80.4398392 37.1057591,80.5735436 Z" id="Rectangle-Copy-2748" fill="#4B4B4B"></path>
            <path d="M78.2386618,80.1724837 L78.1382814,80.2070214 C76.2860641,80.8443104 74.8905734,82.3876606 74.4424101,84.2944893 L55.3985753,165.321515 C54.9031908,167.42926 56.2102667,169.539513 58.3180112,170.034898 C58.6119989,170.103994 58.9129859,170.138889 59.2149843,170.138889 L77.3944786,170.138889 C79.5596559,170.138889 81.3148789,168.383666 81.3148789,166.218489 L81.3148789,82.3672665 C81.3148789,81.0853792 80.2757039,80.0462042 78.9938166,80.0462042 C78.7368435,80.0462042 78.4816541,80.0888778 78.2386618,80.1724837 Z" id="Rectangle-Copy-2749" fill="#4B4B4B" transform="translate(68.304498, 125.092593) scale(-1, 1) translate(-68.304498, -125.092593) "></path>
            <rect id="Rectangle-Copy-2750" fill="#A570FF" x="39.6816609" y="120.555556" width="16.2629758" height="73.5648148"></rect>
            <path d="M47.8131488,72.9166667 C55.8967629,72.9166667 62.449827,79.4697307 62.449827,87.5533449 L62.449827,118.740276 C62.449827,120.257379 61.3869529,121.567014 59.9023218,121.87922 L37.0441659,126.686108 C35.3105746,127.050669 33.6096866,125.94085 33.2451261,124.207259 C33.1994789,123.990193 33.1764706,123.768977 33.1764706,123.547164 L33.1764706,87.5533449 C33.1764706,79.4697307 39.7295346,72.9166667 47.8131488,72.9166667 Z" id="Mask" fill="#4B4B4B"></path>
            <path d="M53.4564481,74.048749 C51.1219588,81.2883937 44.3082974,86.5277778 36.266436,86.5277778 C35.2139016,86.5277778 34.1824063,86.4380267 33.179239,86.2657867 C33.9043728,80.6543262 36.6973448,76.0847832 43.3178435,73.4385633 C47.9869509,71.5723164 53.3425606,73.0716073 53.3425606,73.9919586 C53.3425606,74.045877 53.4564481,74.048749 53.4564481,74.048749 Z" id="Path" fill="#FFC6B7"></path>
            <path d="M53.0525786,56.3808408 C56.507714,53.3241358 59.0749567,52.7105711 60.7543065,54.5401466" id="Path-106-Copy-17" stroke="#EE9583" stroke-width="2.13840016" stroke-linecap="round" stroke-linejoin="round" transform="translate(56.903443, 54.946706) rotate(-21.000000) translate(-56.903443, -54.946706) "></path>
            <path d="M33.4747872,7.40648323 L34.6624754,6.81017961 L45.1913488,2.83409408 C46.1957575,2.45479283 47.3174761,2.96154254 47.6967773,3.96595125 C47.786575,4.20374004 47.8288688,4.45683086 47.8212644,4.71089641 L45.6716502,76.530318 C45.6454476,77.4057554 44.9282047,78.1018519 44.0523753,78.1018519 L17.5564569,78.1018519 C16.4828152,78.1018519 15.6124567,77.2314934 15.6124567,76.1578517 L15.6124567,36.3619011 C15.6124567,24.1090035 22.524548,12.9042791 33.4747872,7.40648323 Z" id="Rectangle-Copy-170" fill="#A570FF"></path>
            <g id="Group" transform="translate(22.768166, 72.592593)" fill="#FFFFFF">
                <path d="M3.77895657,1.06753629 L6.39522861,10.0462963 L0.540557333,10.0462963 L3.15682938,1.06753629 C3.20688799,0.895740612 3.38673642,0.797053217 3.5585321,0.847111826 C3.6648474,0.878090462 3.74797793,0.961220994 3.77895657,1.06753629 Z" id="Triangle"></path>
                <path d="M4.68928375,4.20303345 C4.96058481,5.16184489 5.77492473,5.50925926 6.72013079,5.50925926 C7.35026816,5.50925926 6.67331915,5.73088658 4.68928375,6.17414121 C4.50841637,4.22086174 4.50841637,3.56382582 4.68928375,4.20303345 Z" id="Path-126"></path>
                <path d="M0.135650529,4.20303345 C0.406951588,5.16184489 1.22129151,5.50925926 2.16649757,5.50925926 C2.79663494,5.50925926 2.11968593,5.73088658 0.135650529,6.17414121 C-0.0452168431,4.22086174 -0.0452168431,3.56382582 0.135650529,4.20303345 Z" id="Path-126" transform="translate(1.197168, 5.070384) scale(-1, 1) translate(-1.197168, -5.070384) "></path>
            </g>
        </g>
    </g>
</svg>