<?xml version="1.0" encoding="UTF-8"?>
<svg width="141px" height="207px" viewBox="0 0 141 207" version="1.1" xmlns="http://www.w3.org/2000/svg" xmlns:xlink="http://www.w3.org/1999/xlink">
    <!-- Generator: Sketch 53.2 (72643) - https://sketchapp.com -->
    <title>woman3</title>
    <desc>Created with Sketch.</desc>
    <defs>
        <path d="M70.2919807,-0.345699831 L71.2919807,-0.345699831 C109.951913,-0.345699831 141.291981,30.9943677 141.291981,69.6543002 L141.291981,125.2483 C141.291981,133.204514 134.842195,139.6543 126.885981,139.6543 L14.6979805,139.6543 C6.74176651,139.6543 0.291980736,133.204514 0.291980736,125.2483 L0.291980736,69.6543002 C0.291980736,30.9943677 31.6320482,-0.345699831 70.2919807,-0.345699831 Z" id="path-1"></path>
        <rect id="path-3" x="9.62962963" y="0" width="66.3572985" height="47.1298482" rx="23.5649241"></rect>
    </defs>
    <g id="woman3" stroke="none" stroke-width="1" fill="none" fill-rule="evenodd">
        <g id="Group-15" transform="translate(-16.000000, 40.000000)">
            <g id="Group-11" transform="translate(9.209109, 3.096121)">
                <ellipse id="Oval" fill="#FF9600" cx="36.3642776" cy="38.6614591" rx="27.5348584" ry="27.693086"></ellipse>
                <g id="Group-7" transform="translate(31.126362, 25.801012) scale(-1, 1) rotate(6.000000) translate(-31.126362, -25.801012) translate(2.394336, 3.096121)">
                    <g id="Group-2" transform="translate(28.732026, 22.704890) scale(-1, 1) translate(-28.732026, -22.704890) translate(0.000000, -0.000000)">
                        <g id="Group-Copy-8" transform="translate(28.628872, 22.678161) rotate(-375.000000) translate(-28.628872, -22.678161) translate(3.488349, 5.993507)">
                            <g id="Group-3" opacity="0.775192482" transform="translate(25.074613, 14.108864)"></g>
                            <g id="Group-4" transform="translate(8.065331, 0.000000)" fill="#FF9600">
                                <path d="M13.5497495,2.77759608 L36.8121646,17.6780648 L9.32570404,18.4137899 L9.32570404,5.08822373 C9.32570404,3.57275447 10.5542346,2.34422389 12.0697039,2.34422389 C12.594337,2.34422389 13.107974,2.49462196 13.5497495,2.77759608 Z" id="Triangle-2" transform="translate(23.068934, 9.897310) scale(-1, 1) translate(-23.068934, -9.897310) "></path>
                                <path d="M4.30731793,1.42457256 L27.569733,16.3250413 L0.0832724862,17.0607664 L0.0832724862,3.73520021 C0.0832724862,2.21973095 1.31180306,0.991200373 2.82727233,0.991200373 C3.35190545,0.991200373 3.86554246,1.14159844 4.30731793,1.42457256 Z" id="Triangle-2"></path>
                            </g>
                            <g id="Rectangle-4" transform="translate(0.323317, 1.738113)"></g>
                            <path d="M29.883246,10.4212298 L29.883246,10.4212298 C31.0282244,10.4212298 31.9564128,11.3494182 31.9564128,12.4943966 L31.9564128,15.924687 C31.9564128,17.0696654 31.0282244,17.9978538 29.883246,17.9978538 L29.883246,17.9978538 C28.7382676,17.9978538 27.8100792,17.0696654 27.8100792,15.924687 L27.8100792,12.4943966 C27.8100792,11.3494182 28.7382676,10.4212298 29.883246,10.4212298 Z" id="Rectangle-4" fill="#BE7000"></path>
                            <path d="M23.8096324,10.4212298 L23.8096324,10.4212298 C24.9546108,10.4212298 25.8827992,11.3494182 25.8827992,12.4943966 L25.8827992,15.924687 C25.8827992,17.0696654 24.9546108,17.9978538 23.8096324,17.9978538 L23.8096324,17.9978538 C22.664654,17.9978538 21.7364656,17.0696654 21.7364656,15.924687 L21.7364656,12.4943966 C21.7364656,11.3494182 22.664654,10.4212298 23.8096324,10.4212298 Z" id="Rectangle-4-Copy" fill="#BE7000"></path>
                            <path d="M23.6609981,19.4909712 L30.9431226,19.4909712 C34.6939091,19.4909712 37.7345222,22.5315844 37.7345222,26.2823708 L37.7345222,26.3225059 C37.7345222,30.0732923 34.6939091,33.1139055 30.9431226,33.1139055 L23.6609981,33.1139055 C19.9102117,33.1139055 16.8695985,30.0732923 16.8695985,26.3225059 L16.8695985,26.2823708 C16.8695985,22.5315844 19.9102117,19.4909712 23.6609981,19.4909712 Z" id="Rectangle-41-Copy" fill="#FFFFFF"></path>
                            <path d="M28.3552561,19.7913428 L30.5865979,21.7946733 C31.2314539,22.3736343 31.2848725,23.365734 30.7059115,24.01059 C30.4082906,24.342085 29.9837928,24.5314479 29.5382963,24.5314479 L25.0553916,24.5314479 C24.1887687,24.5314479 23.4862321,23.8289113 23.4862321,22.9622885 C23.4862321,22.5143406 23.6776772,22.0877476 24.0123343,21.7899861 L26.2638972,19.7866556 C26.860612,19.255728 27.7609271,19.2577458 28.3552561,19.7913428 Z" id="Triangle" fill="#FFAADE" opacity="0.721372768" transform="translate(27.297109, 21.951347) scale(1, -1) translate(-27.297109, -21.951347) "></path>
                        </g>
                    </g>
                </g>
            </g>
            <g id="Rectangle-Copy-136" transform="translate(15.708019, 43.345700)">
                <mask id="mask-2" fill="white">
                    <use xlink:href="#path-1"></use>
                </mask>
                <use id="Mask" fill="#2B70C9" xlink:href="#path-1"></use>
                <rect id="Rectangle" fill="#FFFFFF" mask="url(#mask-2)" x="54.0730615" y="59.5143339" width="18.1285403" height="22.0168634" rx="9.06427015"></rect>
                <rect id="Rectangle-Copy-3" fill="#FFFFFF" mask="url(#mask-2)" x="70.8334101" y="59.5143339" width="18.1285403" height="22.0168634" rx="9.06427015"></rect>
                <path d="M95.3129871,-3.643797 L156.366188,-3.643797 C160.003315,-3.643797 162.951788,-0.695323499 162.951788,2.94180288 L162.951788,117.055595 C162.951788,120.692721 160.003315,123.641195 156.366188,123.641195 L95.3129871,123.641195 C91.6758608,123.641195 88.7273873,120.692721 88.7273873,117.055595 L88.7273873,2.94180288 C88.7273873,-0.695323499 91.6758608,-3.643797 95.3129871,-3.643797 Z" id="Rectangle-Copy-2" fill="#1CB0F6" mask="url(#mask-2)"></path>
                <path d="M-16.7828902,-3.643797 L47.6907902,-3.643797 C51.3279166,-3.643797 54.2763901,-0.695323499 54.2763901,2.94180288 L54.2763901,117.055595 C54.2763901,120.692721 51.3279166,123.641195 47.6907902,123.641195 L-16.7828902,123.641195 C-20.4200166,123.641195 -23.3684901,120.692721 -23.3684901,117.055595 L-23.3684901,2.94180288 C-23.3684901,-0.695323499 -20.4200166,-3.643797 -16.7828902,-3.643797 Z" id="Rectangle-Copy-22" fill="#1CB0F6" mask="url(#mask-2)"></path>
            </g>
            <path d="M120.778679,26.4618468 C110.394703,31.6506298 94.7706165,47.3425293 106.068005,82.1123151" id="Path" stroke="#FF9600" stroke-width="12.0049993" stroke-linecap="round" stroke-linejoin="round" transform="translate(111.458982, 54.287081) scale(-1, -1) rotate(-72.000000) translate(-111.458982, -54.287081) "></path>
            <g id="Rectangle-Copy-23" transform="translate(44.045710, 31.649241)">
                <path d="M5.56322616,15.7387332 L8.38245354,15.7404079 C11.6897016,15.7423724 14.3702684,18.4229303 14.372244,21.7301783 L14.372244,21.7301783 C14.3742165,25.032337 11.698887,27.7108646 8.39672827,27.7128371 C8.39435389,27.7128385 8.39197952,27.7128385 8.38960514,27.7128371 L5.57037776,27.7111625 C2.26312973,27.7091979 -0.417437113,25.02864 -0.419412662,21.721392 L-0.419412662,21.721392 C-0.421385171,18.4192333 2.25394433,15.7407057 5.55610303,15.7387332 C5.55847741,15.7387318 5.56085179,15.7387318 5.56322616,15.7387332 Z" id="Rectangle-Copy-26" fill="#FF9600" transform="translate(6.976416, 21.725785) rotate(84.000000) translate(-6.976416, -21.725785) "></path>
                <mask id="mask-4" fill="white">
                    <use xlink:href="#path-3"></use>
                </mask>
                <use id="Mask" fill="#4C4C4C" xlink:href="#path-3"></use>
                <rect id="Rectangle" fill="#D2E4E8" mask="url(#mask-4)" x="0.0522875817" y="26.8330523" width="87.5642702" height="26.1450253"></rect>
            </g>
            <path d="M80.2673854,51.2580101 L93.4405921,51.2580101 C103.215369,51.2580101 111.139392,59.1820326 111.139392,68.9568098 L111.139392,82.3597826 C111.139392,95.7716861 100.266896,106.644182 86.8549923,106.644182 L86.8529853,106.644182 C73.4410817,106.644182 62.5685857,95.7716861 62.5685857,82.3597826 L62.5685857,68.9568098 C62.5685857,59.1820326 70.4926082,51.2580101 80.2673854,51.2580101 Z" id="Rectangle-Copy-137" fill="#FFC6B7"></path>
            <rect id="Rectangle-Copy-138" fill="#FFC6B7" x="54.0173875" y="73.2748735" width="66.0152505" height="40.2495784" rx="9.26099946"></rect>
            <path d="M82.7494136,78.9521452 L76.2505029,104.716614" id="Line-14-Copy-35" stroke="#D25A42" stroke-width="2.46959995" opacity="0.318917411" stroke-linecap="round" stroke-linejoin="round"></path>
            <path d="M97.4574746,78.9521452 L90.9585639,104.716614" id="Line-14-Copy-36" stroke="#D25A42" stroke-width="2.46959995" opacity="0.318917411" stroke-linecap="round" stroke-linejoin="round" transform="translate(94.208019, 91.851602) scale(-1, 1) translate(-94.208019, -91.851602) "></path>
            <path d="M83.6423445,97.3209782 C84.4626998,97.8339128 85.5494064,98.1461397 86.7413943,98.1460368 C87.72695,98.1459518 88.6405693,97.9323624 89.3911991,97.568377" id="Path-Copy-18" stroke="#F19882" stroke-width="2.46959995" stroke-linecap="round" stroke-linejoin="round" transform="translate(86.516772, 97.733508) rotate(-1.000000) translate(-86.516772, -97.733508) "></path>
            <path d="M86.8538062,63.9865093 L86.8538062,63.9865093 C88.3897646,63.9865093 89.7073685,65.0817081 89.9881431,66.5917856 L92.0510506,77.6866286 C92.5847476,80.5569875 90.690509,83.31652 87.8201501,83.850217 C87.5014479,83.9094746 87.1779706,83.9392917 86.8538062,83.9392917 L86.8538062,83.9392917 C83.9342527,83.9392917 81.567487,81.572526 81.567487,78.6529726 C81.567487,78.3288082 81.5973042,78.0053309 81.6565617,77.6866286 L83.7194693,66.5917856 C84.0002439,65.0817081 85.3178477,63.9865093 86.8538062,63.9865093 Z" id="Rectangle-Copy-150" fill="#E47A65"></path>
            <path d="M74.1982153,74.6509275 L80.697126,74.6509275 C78.8936494,77.8617201 76.7273458,79.4671164 74.1982153,79.4671164" id="Path-104-Copy-39" stroke="#D25A42" stroke-width="2.46959995" opacity="0.318917411" stroke-linecap="round" stroke-linejoin="round"></path>
            <path d="M93.6949474,74.6509275 L100.193858,74.6509275 C98.3903814,77.8617201 96.2240778,79.4671164 93.6949474,79.4671164" id="Path-104-Copy-40" stroke="#D25A42" stroke-width="2.46959995" opacity="0.318917411" stroke-linecap="round" stroke-linejoin="round" transform="translate(96.944403, 77.059022) scale(-1, 1) translate(-96.944403, -77.059022) "></path>
            <ellipse id="Oval-Copy-58" fill="#4C4C4C" cx="87.7091086" cy="14.2765599" rx="14.1949891" ry="14.2765599"></ellipse>
            <path d="M79.3795761,60.8782731 L77.4184815,61.0354498 C74.9259498,61.2352198 73.0672992,63.4177616 73.2670693,65.9102932 C73.2689064,65.9332156 73.2709182,65.9561237 73.2731044,65.9790154 L73.5392947,68.7662798 L80.0828132,68.2418336 C82.0881366,68.0811121 83.5834819,66.3251856 83.4227604,64.3198622 C83.4212823,64.3014204 83.4196638,64.2829901 83.4179049,64.2645729 L83.4179049,64.2645729 C83.2228507,62.2221701 81.4247137,60.7143605 79.3795761,60.8782731 Z" id="Rectangle-Copy-139" fill="#4C4C4C"></path>
            <path d="M96.4819726,60.8782731 L94.520878,61.0354498 C92.0283463,61.2352198 90.1696958,63.4177616 90.3694658,65.9102932 C90.371303,65.9332156 90.3733147,65.9561237 90.3755009,65.9790154 L90.6416912,68.7662798 L97.1852097,68.2418336 C99.1905331,68.0811121 100.685878,66.3251856 100.525157,64.3198622 C100.523679,64.3014204 100.52206,64.2829901 100.520301,64.2645729 L100.520301,64.2645729 C100.325247,62.2221701 98.5271102,60.7143605 96.4819726,60.8782731 Z" id="Rectangle-Copy-140" fill="#4C4C4C" transform="translate(95.405187, 64.674536) scale(-1, 1) translate(-95.405187, -64.674536) "></path>
            <g id="Group-6" transform="translate(56.753771, 129.005059)" fill="#FFC6B7">
                <g id="Group-9">
                    <g id="Group-12">
                        <path d="M38.7631595,5.53409343 L46.7649321,5.55527098 C51.4830411,5.56775796 55.30472,9.38943683 55.317207,14.1075459 L55.3383845,22.1093185 C55.3509184,26.8451433 51.5219345,30.6944486 46.7861096,30.7069825 C46.7709799,30.7070225 46.7558502,30.7070225 46.7407205,30.7069825 L38.7389479,30.685805 C34.0208389,30.673318 30.19916,26.8516391 30.186673,22.1335301 L30.1654955,14.1317575 C30.1529616,9.39593261 33.9819455,5.5466273 38.7177704,5.53409343 C38.7329,5.53405339 38.7480298,5.53405339 38.7631595,5.53409343 Z" id="Rectangle-Copy-1199" transform="translate(42.751940, 18.120538) rotate(-315.000000) translate(-42.751940, -18.120538) "></path>
                        <path d="M14.0282237,5.53409343 L22.0299963,5.55527098 C26.7481053,5.56775796 30.5697842,9.38943683 30.5822712,14.1075459 L30.6034487,22.1093185 C30.6159826,26.8451433 26.7869987,30.6944486 22.0511738,30.7069825 C22.0360441,30.7070225 22.0209144,30.7070225 22.0057847,30.7069825 L14.0040121,30.685805 C9.28590306,30.673318 5.46422419,26.8516391 5.45173721,22.1335301 L5.43055966,14.1317575 C5.4180258,9.39593261 9.24700969,5.5466273 13.9828346,5.53409343 C13.9979642,5.53405339 14.013094,5.53405339 14.0282237,5.53409343 Z" id="Rectangle-Copy-1200" transform="translate(18.017004, 18.120538) rotate(-315.000000) translate(-18.017004, -18.120538) "></path>
                    </g>
                </g>
            </g>
            <path d="M28.9154703,61.8221558 L30.9430409,61.8236058 C34.2503078,61.825971 36.9305838,64.5068342 36.9322247,67.8141015 L36.9322247,67.8141015 C36.933863,71.1161943 34.258316,73.7943975 30.9562232,73.7960358 C30.9538091,73.796037 30.951395,73.7960368 30.9489809,73.796035 L28.9214103,73.794585 C25.6141434,73.7922198 22.9338674,71.1113566 22.9322265,67.8040893 L22.9322265,67.8040893 C22.9305882,64.5019965 25.6061352,61.8237933 28.908228,61.822155 C28.9106421,61.8221538 28.9130562,61.8221541 28.9154703,61.8221558 Z" id="Rectangle-Copy-26" fill="#FF9600" transform="translate(29.932226, 67.809095) rotate(84.000000) translate(-29.932226, -67.809095) "></path>
            <g id="Group-Copy-6" transform="translate(30.100218, 128.930498) rotate(-10.000000) translate(-30.100218, -128.930498) translate(2.736383, 112.589857)">
                <g id="Group-3" opacity="0.775192482" transform="translate(27.245607, 13.671420)"></g>
                <g id="Rectangle-4" transform="translate(0.257748, 0.176056)"></g>
            </g>
        </g>
    </g>
</svg>