<?xml version="1.0" encoding="UTF-8"?>
<svg width="141px" height="207px" viewBox="0 0 141 207" version="1.1" xmlns="http://www.w3.org/2000/svg" xmlns:xlink="http://www.w3.org/1999/xlink">
    <!-- Generator: Sketch 53.2 (72643) - https://sketchapp.com -->
    <title>boy</title>
    <desc>Created with Sketch.</desc>
    <defs>
        <polygon id="path-1" points="0.138623386 0 47.8587726 0 47.8587726 26 0.138623386 26"></polygon>
    </defs>
    <g id="boy" stroke="none" stroke-width="1" fill="none" fill-rule="evenodd">
        <g id="Group" transform="translate(28.000000, 54.000000)">
            <ellipse id="Oval-Copy-167" fill="#FF9600" cx="19.1268657" cy="26.751773" rx="13.6343284" ry="13.7021277"></ellipse>
            <rect id="Rectangle" fill="#FF9600" x="19.1268657" y="23.8156028" width="47.3955224" height="16.3120567"></rect>
            <path d="M14.7219119,129.21195 L14.7219119,129.21195 C19.6906416,129.219743 23.7174829,133.244179 23.7282445,138.212903 L23.7486214,147.62101 C23.7593313,152.565814 19.7594573,156.583052 14.8146529,156.593762 C14.8035079,156.593786 14.7923628,156.59379 14.7812178,156.593772 L14.7812178,156.593772 C9.81248812,156.585979 5.78564684,152.561543 5.77488516,147.592818 L5.75450829,138.184712 C5.74379842,133.239908 9.74367237,129.222669 14.6884768,129.21196 C14.6996218,129.211935 14.7107669,129.211932 14.7219119,129.21195 Z" id="Rectangle-Copy-1383" fill="#FFB5A1" transform="translate(14.751565, 142.902861) rotate(24.000000) translate(-14.751565, -142.902861) "></path>
            <path d="M71.7219119,129.21195 L71.7219119,129.21195 C76.6906416,129.219743 80.7174829,133.244179 80.7282445,138.212903 L80.7486214,147.62101 C80.7593313,152.565814 76.7594573,156.583052 71.8146529,156.593762 C71.8035079,156.593786 71.7923628,156.59379 71.7812178,156.593772 L71.7812178,156.593772 C66.8124881,156.585979 62.7856468,152.561543 62.7748852,147.592818 L62.7545083,138.184712 C62.7437984,133.239908 66.7436724,129.222669 71.6884768,129.21196 C71.6996218,129.211935 71.7107669,129.211932 71.7219119,129.21195 Z" id="Rectangle-Copy-1383" fill="#FFB5A1" transform="translate(71.751565, 142.902861) scale(-1, 1) rotate(24.000000) translate(-71.751565, -142.902861) "></path>
            <ellipse id="Oval-Copy-70" fill="#FF9600" cx="64.8992537" cy="27.7304965" rx="12.3358209" ry="12.3971631"></ellipse>
            <ellipse id="Oval-Copy-9" fill="#FFC6B7" cx="13.9328358" cy="58.7234043" rx="8.11567164" ry="8.15602837"></ellipse>
            <ellipse id="Oval-Copy-10" fill="#FFC6B7" cx="71.391791" cy="58.7234043" rx="8.11567164" ry="8.15602837"></ellipse>
            <path d="M12.9644738,106.771921 L25.2937274,106.794683 C27.0879833,106.797996 28.5416871,108.251708 28.5449887,110.045964 L28.6037798,141.996312 C28.60709,143.795255 27.1514418,145.25627 25.3524986,145.25958 C25.3484962,145.259588 25.3444938,145.259588 25.3404914,145.25958 L13.0112378,145.236818 C11.2169819,145.233505 9.76327812,143.779793 9.75997655,141.985537 L9.7011854,110.035189 C9.69787521,108.236246 11.1535234,106.775231 12.9524666,106.771921 C12.956469,106.771914 12.9604714,106.771914 12.9644738,106.771921 Z" id="Rectangle-Copy-1384" fill="#EDE1CF" transform="translate(19.152483, 126.015751) rotate(24.000000) translate(-19.152483, -126.015751) "></path>
            <path d="M64.1983646,105.657253 L52.8727509,110.70452 C51.2300369,111.436358 50.4912342,113.361005 51.2223137,115.004056 L64.220875,144.224836 C64.9521932,145.868424 66.877435,146.607964 68.521023,145.876646 C68.5214808,145.876443 68.5219386,145.876239 68.5223963,145.876035 L79.8473983,140.827395 C81.4901124,140.095557 82.2289151,138.17091 81.4978355,136.527859 L68.4992743,107.307079 C67.7679561,105.663491 65.8427143,104.92395 64.1991263,105.655269 C64.1986685,105.655472 64.1982107,105.655676 64.197753,105.65588 Z" id="Rectangle-Copy-1385" fill="#EDE1CF"></path>
            <polygon id="Mask-Copy-18" fill="#FFC6B7" transform="translate(42.824627, 67.368794) rotate(-360.000000) translate(-42.824627, -67.368794) " points="19.1268657 40.1276596 66.5223881 40.1276596 66.5223881 94.6099291 19.1268657 94.6099291"></polygon>
            <g id="Rectangle-Copy-132" transform="translate(18.802239, 104.049645)">
                <mask id="mask-2" fill="white">
                    <use xlink:href="#path-1"></use>
                </mask>
                <use id="Mask" fill="#EDE1CF" xlink:href="#path-1"></use>
            </g>
            <g id="Group-Copy-9" transform="translate(23.996269, 47.631206)">
                <g id="Group-5">
                    <rect id="Rectangle-35-Copy-16" fill="#FFFFFF" transform="translate(8.115672, 11.255319) scale(-1, 1) translate(-8.115672, -11.255319) " x="0" y="0" width="16.2313433" height="22.5106383" rx="8.06176903"></rect>
                    <rect id="Rectangle-35-Copy-35" fill="#4B4B4B" transform="translate(9.197761, 11.255319) scale(-1, 1) translate(-9.197761, -11.255319) " x="5.41044776" y="5.00236407" width="7.57462687" height="12.5059102" rx="3.76215888"></rect>
                </g>
            </g>
            <g id="Group-Copy-10" transform="translate(53.537313, 58.886525) scale(-1, 1) translate(-53.537313, -58.886525) translate(45.421642, 47.631206)">
                <g id="Group-5">
                    <rect id="Rectangle-35-Copy-16" fill="#FFFFFF" transform="translate(8.115672, 11.255319) scale(-1, 1) translate(-8.115672, -11.255319) " x="0" y="0" width="16.2313433" height="22.5106383" rx="8.06176903"></rect>
                    <rect id="Rectangle-35-Copy-35" fill="#4B4B4B" transform="translate(9.197761, 11.255319) scale(-1, 1) translate(-9.197761, -11.255319) " x="5.41044776" y="5.00236407" width="7.57462687" height="12.5059102" rx="3.76215888"></rect>
                </g>
            </g>
            <path d="M43.1317268,62.7583999 C45.9615933,61.2682657 49.2491533,60.5249425 52.9944066,60.5284302 C56.7396599,60.5319179 60.4802143,61.1967424 64.2160696,62.5229037 L64.2233262,70.3512804 L44.7421879,70.3331389 L43.1317268,62.7583999 Z" id="Rectangle-Copy-84" fill="#FFC6B7" transform="translate(53.677526, 65.439849) scale(-1, 1) rotate(11.000000) translate(-53.677526, -65.439849) "></path>
            <path d="M20.0163209,62.4256895 C23.5404892,61.4050363 27.1752,60.8964535 30.9204533,60.8999412 C34.6657066,60.9034289 38.0591101,61.333513 41.1006638,62.1901934 L41.1079204,70.0185701 L21.6267821,70.0004286 L20.0163209,62.4256895 Z" id="Rectangle-Copy-85" fill="#FFC6B7" transform="translate(30.562121, 65.459247) rotate(11.000000) translate(-30.562121, -65.459247) "></path>
            <g id="Group-9-Copy" transform="translate(46.167000, 68.251304) rotate(-5.000000) translate(-46.167000, -68.251304) translate(35.616627, 59.279673)">
                <g id="Group-4" transform="translate(13.586334, 11.297535) rotate(-6.000000) translate(-13.586334, -11.297535) translate(6.606856, 6.893280)" fill="#FFFFFF">
                    <path d="M0.306984385,3.03600113 L6.65524309,3.03600113 L6.65524309,5.46728764 C6.65524309,7.22031087 5.23413697,8.64141699 3.48111374,8.64141699 L3.48111374,8.64141699 C1.7280905,8.64141699 0.306984385,7.22031087 0.306984385,5.46728764 L0.306984385,3.03600113 Z" id="Rectangle"></path>
                    <path d="M6.51781913,1.48620964 L12.8761249,1.46465417 L12.8693194,3.48236485 C12.8633856,5.24162981 11.4387084,6.66633151 9.67944358,6.67229564 L9.67944358,6.67229564 C7.93548039,6.6782079 6.51692606,5.26923923 6.51101381,3.52527604 C6.51098967,3.51815749 6.51098961,3.51103887 6.51101362,3.50392032 L6.51781913,1.48620964 Z" id="Rectangle" transform="translate(9.693560, 4.068484) rotate(-28.000000) translate(-9.693560, -4.068484) "></path>
                </g>
                <path d="M16.8695539,4.65243957 C10.2449358,9.83813607 4.86314776,12.7587732 0.724189725,13.4143509" id="Path" stroke="#FFC6B7" stroke-width="3.90873641" transform="translate(8.796872, 9.033395) scale(-1, 1) rotate(46.000000) translate(-8.796872, -9.033395) "></path>
            </g>
            <rect id="Rectangle-Copy-2036" fill="#FD9477" transform="translate(42.662313, 63.780142) rotate(-360.000000) translate(-42.662313, -63.780142) " x="37.9552239" y="61.0070922" width="9.4141791" height="5.54609929" rx="2.76868829"></rect>
            <rect id="Rectangle" fill="#58A700" x="13.608209" y="128.539007" width="60.0559701" height="24.7943262" rx="6.18883265"></rect>
            <ellipse id="Oval-Copy-67" fill="#FF9600" cx="35.8451493" cy="20.3900709" rx="20.2891791" ry="20.3900709"></ellipse>
            <ellipse id="Oval" fill="#FF9600" cx="28.2164179" cy="35.8865248" rx="10.7126866" ry="10.7659574"></ellipse>
            <path d="M23.4224589,99.2968808 L26.6598711,99.2928575 C27.5593435,99.2917397 28.2894162,100.02 28.290534,100.919472 C28.2905357,100.920819 28.2905357,100.922165 28.290534,100.923512 L28.245733,137.128317 C28.244622,138.026212 27.5170135,138.753824 26.6191181,138.75494 L23.3817059,138.758964 C22.4822335,138.760081 21.7521608,138.031821 21.751043,137.132349 C21.7510413,137.131002 21.7510413,137.129656 21.751043,137.128309 L21.795844,100.923504 C21.7969551,100.025609 22.5245635,99.2979967 23.4224589,99.2968808 Z" id="Rectangle-Copy-1574" fill="#58A700" transform="translate(25.020789, 119.025911) rotate(-15.000000) translate(-25.020789, -119.025911) "></path>
            <path d="M59.1314141,99.2968808 L62.3688263,99.2928575 C63.2682987,99.2917397 63.9983714,100.02 63.9994892,100.919472 C63.9994909,100.920819 63.9994909,100.922165 63.9994892,100.923512 L63.9546883,137.128317 C63.9535772,138.026212 63.2259687,138.753824 62.3280733,138.75494 L59.0906612,138.758964 C58.1911887,138.760081 57.4611161,138.031821 57.4599982,137.132349 C57.4599966,137.131002 57.4599966,137.129656 57.4599982,137.128309 L57.5047992,100.923504 C57.5059103,100.025609 58.2335187,99.2979967 59.1314141,99.2968808 Z" id="Rectangle-Copy-1574" fill="#58A700" transform="translate(60.729744, 119.025911) scale(-1, 1) rotate(-15.000000) translate(-60.729744, -119.025911) "></path>
            <rect id="Rectangle" fill="#EDE1CF" x="15.5559701" y="89.3900709" width="54.5373134" height="16.3120567" rx="2.93155231"></rect>
            <ellipse id="Oval" fill="#5E7A00" opacity="0.58484468" cx="29.5149254" cy="137.347518" rx="3.57089552" ry="3.58865248"></ellipse>
            <ellipse id="Oval-Copy-171" fill="#5E7A00" opacity="0.58484468" cx="58.1343284" cy="137.347518" rx="3.57089552" ry="3.58865248"></ellipse>
        </g>
    </g>
</svg>