<?xml version="1.0" encoding="UTF-8"?>
<svg width="141px" height="207px" viewBox="0 0 141 207" version="1.1" xmlns="http://www.w3.org/2000/svg" xmlns:xlink="http://www.w3.org/1999/xlink">
    <!-- Generator: Sketch 53.2 (72643) - https://sketchapp.com -->
    <title>man1</title>
    <desc>Created with Sketch.</desc>
    <defs>
        <rect id="path-1" x="0.0972430185" y="0" width="95.5453176" height="91.8626538" rx="45.9313269"></rect>
        <ellipse id="path-3" cx="36.7033842" cy="36.9798542" rx="36.7033842" ry="36.9798542"></ellipse>
        <path d="M8.2472796,11.3078125 L23.740681,0 L39.0381702,11.30352 C44.1650552,15.0918442 47.1900654,21.088301 47.1900654,27.4629657 L47.1900654,79.8295266 L0,79.8295266 L7.10542736e-15,27.5373057 C9.16908622e-15,21.1209454 3.06449126,15.0904551 8.2472796,11.3078125 Z" id="path-5"></path>
    </defs>
    <g id="man1" stroke="none" stroke-width="1" fill="none" fill-rule="evenodd">
        <g id="Group-127" transform="translate(-27.000000, 23.000000)">
            <g id="Group-10">
                <g id="Group-80-Copy-21" transform="translate(90.009830, 169.500685) scale(-1, 1) rotate(-7.000000) translate(-90.009830, -169.500685) translate(6.509830, 111.500685)">
                    <g id="Group-8" transform="translate(0.191993, 0.255131)">
                        <g id="Group-2" transform="translate(18.754622, 78.774773) rotate(6.000000) translate(-18.754622, -78.774773) translate(1.754622, 62.274773)" fill="#C6775C">
                            <path d="M12.0733936,5.06525998 L21.9738178,5.10240779 C25.5187954,5.11570906 28.3892687,7.98618232 28.4025699,11.5311599 L28.4397177,21.4315841 C28.4530899,24.995458 25.5748396,27.8953889 22.0109657,27.9087611 C21.9948241,27.9088216 21.9786823,27.9088216 21.9625408,27.9087611 L12.0621166,27.8716132 C8.51713901,27.858312 5.64666574,24.9878387 5.63336448,21.4428612 L5.59621667,11.542437 C5.5828445,7.97856306 8.46109485,5.07863215 12.0249688,5.06525998 C12.0411103,5.06519942 12.0572521,5.06519942 12.0733936,5.06525998 Z" id="Rectangle-Copy-1188" transform="translate(17.017967, 16.487011) rotate(-315.000000) translate(-17.017967, -16.487011) "></path>
                        </g>
                        <path d="M36.7762274,3.49469225 L45.0050383,3.51994207 C52.5804833,3.54318706 58.717908,9.6745818 58.7485994,17.2500003 L58.952873,67.6699502 C58.9837196,75.2836719 52.8365847,81.480819 45.222863,81.5116656 C45.1901451,81.5117981 45.1574268,81.5118142 45.1247088,81.5117138 L36.8958978,81.486464 C29.3204528,81.463219 23.1830282,75.3318243 23.1523368,67.7564057 L22.9480631,17.3364558 C22.9172165,9.72273412 29.0643514,3.52558707 36.6780731,3.49474049 C36.710791,3.49460794 36.7435093,3.49459186 36.7762274,3.49469225 Z" id="Rectangle-Copy-1187" fill="#D83867" transform="translate(40.950468, 42.503203) rotate(35.000000) translate(-40.950468, -42.503203) "></path>
                    </g>
                    <g id="Group-8" transform="translate(118.205346, 58.741663) scale(-1, 1) rotate(-15.000000) translate(-118.205346, -58.741663) translate(80.705346, 10.241663)">
                        <g id="Group-2" transform="translate(18.756262, 78.743871) rotate(6.000000) translate(-18.756262, -78.743871) translate(1.756262, 62.243871)" fill="#C6775C">
                            <path d="M12.1988284,5.06080744 L22.0992526,5.09795525 C25.6442301,5.11125652 28.5147034,7.98172978 28.5280047,11.5267073 L28.5651525,21.4271315 C28.5785246,24.9910054 25.7002743,27.8909363 22.1364004,27.9043085 C22.1202588,27.9043691 22.1041171,27.9043691 22.0879755,27.9043085 L12.1875513,27.8671607 C8.64257374,27.8538594 5.77210048,24.9833862 5.75879921,21.4384086 L5.7216514,11.5379844 C5.70827924,7.97411052 8.58652958,5.07417961 12.1504035,5.06080744 C12.1665451,5.06074688 12.1826868,5.06074688 12.1988284,5.06080744 Z" id="Rectangle-Copy-1188" transform="translate(17.143402, 16.482558) rotate(-315.000000) translate(-17.143402, -16.482558) "></path>
                        </g>
                        <path d="M38.1308469,2.60205502 L42.381765,2.61616489 C49.9575013,2.64131068 56.0935116,8.77470706 56.1218852,16.350432 L56.2994898,63.7706531 C56.3280058,71.3843839 50.1789743,77.579649 42.5652435,77.608165 C42.5327797,77.6082866 42.5003156,77.6082935 42.4678518,77.6081858 L38.2169337,77.5940759 C30.6411974,77.5689301 24.5051871,71.4355337 24.4768135,63.8598088 L24.2992089,16.4395876 C24.2706929,8.82585684 30.4197244,2.63059175 38.0334552,2.60207577 C38.065919,2.60195418 38.0983831,2.60194726 38.1308469,2.60205502 Z" id="Rectangle-Copy-1187" fill="#D83867" transform="translate(40.299349, 40.105120) rotate(35.000000) translate(-40.299349, -40.105120) "></path>
                    </g>
                </g>
                <rect id="Rectangle-Copy-1883" fill="#1C5D88" x="83.8129181" y="173.787129" width="24.4689228" height="77.4815994" rx="1.46659317"></rect>
                <g id="Rectangle" transform="translate(47.886181, 105.363236)">
                    <mask id="mask-2" fill="white">
                        <use xlink:href="#path-1"></use>
                    </mask>
                    <use id="Mask" fill="#D83867" xlink:href="#path-1"></use>
                    <rect stroke="#979797" stroke-width="0.5" fill="#1C5D88" mask="url(#mask-2)" x="-7.9063076" y="67.4594176" width="110.192746" height="31.7839997"></rect>
                    <rect fill="#D79754" mask="url(#mask-2)" x="-7.8650109" y="61.0461086" width="107" height="10.2721817"></rect>
                    <rect fill="#1C5D88" mask="url(#mask-2)" x="20.390769" y="61.0461086" width="5.2433406" height="10.8591635"></rect>
                    <rect fill="#1C5D88" mask="url(#mask-2)" x="71.9502849" y="61.0461086" width="5.2433406" height="10.8591635"></rect>
                    <rect fill="#DBDADA" mask="url(#mask-2)" x="39.9076479" y="61.0461086" width="17.1865053" height="10.2721817" rx="0.586637269"></rect>
                    <g id="Group-7-Copy-2" mask="url(#mask-2)" stroke="#C52F5B" stroke-linecap="round" stroke-linejoin="round" stroke-width="4.38804699">
                        <g transform="translate(25.634110, 23.185782)" id="Path-88">
                            <polyline points="0 0 4.90576706 4.95935908 9.81153412 0"></polyline>
                            <polyline points="0 12.6239206 4.90576706 17.5832796 9.81153412 12.6239206"></polyline>
                            <polyline points="34.7478357 0 39.6536028 4.95935908 44.5593699 0"></polyline>
                            <polyline points="34.7478357 12.6239206 39.6536028 17.5832796 44.5593699 12.6239206"></polyline>
                            <polyline points="17.9168528 0 22.8226199 4.95935908 27.7283869 0"></polyline>
                            <polyline points="17.9168528 12.6239206 22.8226199 17.5832796 27.7283869 12.6239206"></polyline>
                        </g>
                    </g>
                </g>
                <g id="Rectangle-+-Rectangle-Copy-1792-Mask-Copy-Copy-Copy-Copy-Copy-Copy-Copy-Copy-Copy-Copy-Copy-Copy-Copy-Copy" transform="translate(52.644171, 106.476616)"></g>
                <g id="Line-12-Copy-14" transform="translate(59.343995, 0.000000)">
                    <mask id="mask-4" fill="white">
                        <use xlink:href="#path-3"></use>
                    </mask>
                    <use id="Mask" fill="#1C5D88" xlink:href="#path-3"></use>
                    <path d="M29.12967,36.6863633 L63.5026806,10.8591635" id="Line-12" stroke-opacity="0.208506337" stroke="#000000" stroke-width="3.81314225" stroke-linecap="square" mask="url(#mask-4)"></path>
                </g>
                <g id="Rectangle-Copy-1895" transform="translate(72.452347, 28.468618)">
                    <mask id="mask-6" fill="white">
                        <use xlink:href="#path-5"></use>
                    </mask>
                    <use id="Mask" fill="#C6775C" xlink:href="#path-5"></use>
                    <g id="Group-97" mask="url(#mask-6)">
                        <g transform="translate(7.865011, 13.794073)">
                            <rect id="Rectangle-35-Copy-136" fill="#FFFFFF" x="17.1865053" y="0" width="13.1083515" height="18.4899271" rx="6.55417575"></rect>
                            <rect id="Rectangle-35-Copy-137" fill="#FFFFFF" transform="translate(6.554176, 9.244964) scale(-1, 1) translate(-6.554176, -9.244964) " x="0" y="0" width="13.1083515" height="18.4899271" rx="6.55417575"></rect>
                            <rect id="Rectangle-35-Copy-138" fill="#4B4B4B" transform="translate(7.719363, 9.244964) scale(-1, 1) translate(-7.719363, -9.244964) " x="4.9520439" y="4.69585451" width="5.5346373" height="9.09821811" rx="2.76731865"></rect>
                            <rect id="Rectangle-35-Copy-139" fill="#4B4B4B" transform="translate(22.478251, 9.538454) scale(-1, 1) translate(-22.478251, -9.538454) " x="19.7109326" y="4.98934541" width="5.5346373" height="9.09821811" rx="2.76731865"></rect>
                        </g>
                    </g>
                    <path d="M6.29195155,31.9922368 C11.9305925,33.1196755 16.2504905,34.9772993 19.2516454,37.5651081" id="Path-87" stroke="#C6775C" stroke-width="8.5062404" mask="url(#mask-6)" transform="translate(12.771798, 34.778672) rotate(-2.000000) translate(-12.771798, -34.778672) "></path>
                    <path d="M26.6827205,31.9922368 C32.3213615,33.1196755 36.6412595,34.9772993 39.6424144,37.5651081" id="Path-87" stroke="#C6775C" stroke-width="8.5062404" mask="url(#mask-6)" transform="translate(33.162567, 34.778672) scale(-1, 1) rotate(-2.000000) translate(-33.162567, -34.778672) "></path>
                </g>
                <path d="M78.4752259,64.9378923 L112.334527,64.9378923 C121.244274,64.9378923 128.467052,72.1606697 128.467052,81.0704172 L128.467052,81.0893671 C128.467052,89.9991146 121.244274,97.221892 112.334527,97.221892 L78.4752259,97.221892 C69.5654784,97.221892 62.342701,89.9991146 62.342701,81.0893671 L62.342701,81.0704172 C62.342701,72.1606697 69.5654784,64.9378923 78.4752259,64.9378923 Z" id="Mask-Copy-40" fill="#3D3D3D"></path>
                <path d="M88.2049134,66.8912014 C89.7286761,64.0313963 93.274013,62.9548658 96.1194204,64.4938833 C98.9566088,66.0284553 100.019181,69.5807413 98.4997842,72.432353 C95.5146875,78.0347965 90.643331,81.1068028 84.6134478,81.1068028 C81.3853987,81.1068028 78.7743712,78.4761075 78.7743712,75.2381044 C78.7743712,72.0001013 81.3853987,69.369406 84.6134478,69.369406 C86.2562353,69.369406 87.2220277,68.7358857 88.2049134,66.8912014 Z" id="Path-62-Copy-32" stroke="#3D3D3D" stroke-width="3.81314225" fill="#FFFFFF" fill-rule="nonzero" transform="translate(88.983282, 72.449554) scale(-1, 1) rotate(6.000000) translate(-88.983282, -72.449554) "></path>
                <rect id="Rectangle-Copy-1896" fill="#C6775C" x="89.698023" y="61.0831315" width="11.3605713" height="6.75029086" rx="3.3731643"></rect>
                <rect id="Rectangle" fill="#D83867" x="69.1313446" y="105.950217" width="53.8898895" height="6.75029086" rx="2.34654907"></rect>
            </g>
        </g>
    </g>
</svg>