<?xml version="1.0" encoding="UTF-8"?>
<svg width="141px" height="207px" viewBox="0 0 141 207" version="1.1" xmlns="http://www.w3.org/2000/svg" xmlns:xlink="http://www.w3.org/1999/xlink">
    <!-- Generator: Sketch 53.2 (72643) - https://sketchapp.com -->
    <title>woman2</title>
    <desc>Created with Sketch.</desc>
    <defs>
        <path d="M36.1220599,0.109671052 L40.7354925,0.109671052 C60.6107443,0.109671052 76.7228193,16.221746 76.7228193,36.0969978 C76.7228193,40.1767183 76.0291058,44.2267374 74.6713396,48.0738909 L53.2693555,108.715199 L22.1900927,108.715199 L1.94750264,47.3747335 C-4.28101878,28.5006466 5.97023743,8.15096195 24.8443242,1.92244053 C28.4830882,0.721634375 32.2902798,0.109671052 36.1220599,0.109671052 Z" id="path-1"></path>
        <path d="M17.8675289,1.40284555e-18 L48.7174683,0 C54.7526615,-1.10864701e-15 60.036518,4.05089007 61.6034801,9.87911339 L67.8873086,33.2514437 C69.4359616,39.0115672 66.0218901,44.9365013 60.2617665,46.4851543 C59.3473495,46.7310022 58.4045718,46.8555276 57.4576823,46.8555276 L10.5202681,46.8555276 C4.55559292,46.8555276 -0.279731655,42.0202031 -0.279731655,36.0555279 C-0.279731655,35.3128659 -0.203128456,34.5721844 -0.051138106,33.8452416 L4.8063453,10.6127626 C6.09914902,4.42951244 11.5505736,-6.15950975e-16 17.8675289,-1.77635684e-15 Z" id="path-3"></path>
    </defs>
    <g id="woman2" stroke="none" stroke-width="1" fill="none" fill-rule="evenodd">
        <g id="Group-8" transform="translate(6.000000, 47.000000)">
            <g id="Group-14">
                <g id="Group-123-Copy" transform="translate(31.247337, 128.423484) scale(-1, 1) rotate(5.000000) translate(-31.247337, -128.423484) translate(4.635449, 83.514393)">
                    <path d="M3.29757596,37.1503725 L42.3948854,37.1884058 C47.5412817,37.1934121 51.7120083,41.3641474 51.7170038,46.5105437 L51.7170228,46.5301104 C51.7220163,51.6743804 47.5558095,55.8486832 42.4115395,55.8536767 C42.4055053,55.8536825 42.3994711,55.8536825 42.3934369,55.8536766 L3.30118617,55.8156483 C1.24262764,55.8136458 -0.425662966,54.1453517 -0.427661182,52.0867931 L-0.438533191,40.8864738 C-0.440534157,38.825083 1.22893117,37.1523735 3.29032199,37.1503725 C3.29273998,37.1503702 3.29515797,37.1503702 3.29757596,37.1503725 Z" id="Rectangle-Copy-2611" fill="#DB8E73" transform="translate(25.639246, 46.502026) scale(-1, 1) rotate(-69.000000) translate(-25.639246, -46.502026) "></path>
                    <g id="Group-122-Copy" transform="translate(37.789661, 74.566832) scale(-1, 1) translate(-37.789661, -74.566832) translate(22.696263, 59.517209)" fill="#DB8E73">
                        <path d="M11.6338164,4.38049412 L18.4549807,4.37061131 C22.4059775,4.36488693 25.6135337,7.56316213 25.6192581,11.5141589 C25.6192681,11.5210681 25.6192681,11.5279774 25.6192581,11.5348866 L25.6093711,18.3603322 C25.6036596,22.3032367 22.408728,25.4981692 18.4658235,25.5038819 L11.6446593,25.5137647 C7.69366247,25.5194891 4.48610622,22.3212139 4.48038184,18.3702171 C4.48037183,18.3633078 4.48037183,18.3563986 4.48038184,18.3494894 L4.49026884,11.5240438 C4.49598034,7.58113928 7.69091191,4.38620677 11.6338164,4.38049412 Z" id="Rectangle-Copy-2608" transform="translate(15.049820, 14.942188) scale(-1, 1) rotate(-313.000000) translate(-15.049820, -14.942188) "></path>
                    </g>
                    <path d="M-3.96442123,18.4716902 L35.1328882,18.5097234 C40.2792846,18.5147298 44.4500111,22.685465 44.4550066,27.8318613 L44.4550256,27.851428 C44.4600191,32.995698 40.2938123,37.1700008 35.1495423,37.1749943 C35.1435081,37.1750001 35.1374739,37.1750001 35.1314398,37.1749943 L-3.96081102,37.1369659 C-6.01936955,37.1349634 -7.68766015,35.4666693 -7.68965837,33.4081107 L-7.70053038,22.2077915 C-7.70253134,20.1464006 -6.03306601,18.4736911 -3.9716752,18.4716901 C-3.96925721,18.4716878 -3.96683922,18.4716878 -3.96442123,18.4716902 Z" id="Rectangle-Copy-2611" fill="#4B4B4B" transform="translate(18.377249, 27.823344) scale(-1, 1) rotate(-69.000000) translate(-18.377249, -27.823344) "></path>
                </g>
                <path d="M26.0048931,121.424907 L35.652946,121.417082 C38.7450327,121.414574 41.2536974,123.919172 41.2562054,127.011259 C41.2562078,127.01429 41.2562078,127.017321 41.2562053,127.020352 L41.2534488,130.410698 C41.2509376,133.499234 38.7478079,136.002359 35.6592718,136.004864 L26.0112188,136.01269 C22.9191321,136.015198 20.4104675,133.510599 20.4079595,130.418513 C20.407957,130.415482 20.407957,130.412451 20.4079595,130.409419 L20.410716,127.019073 C20.4132272,123.930537 22.9163569,121.427413 26.0048931,121.424907 Z" id="Rectangle" fill="#4B4B4B" transform="translate(30.832082, 128.714886) rotate(17.000000) translate(-30.832082, -128.714886) "></path>
                <g id="Group" transform="translate(97.100484, 128.423484) scale(-1, 1) translate(-97.100484, -128.423484) translate(65.978106, 80.819848)">
                    <g id="Group-123-Copy" transform="translate(31.122378, 47.603636) scale(-1, 1) rotate(5.000000) translate(-31.122378, -47.603636) translate(4.510490, 2.694545)">
                        <path d="M3.29757596,37.1503725 L42.3948854,37.1884058 C47.5412817,37.1934121 51.7120083,41.3641474 51.7170038,46.5105437 L51.7170228,46.5301104 C51.7220163,51.6743804 47.5558095,55.8486832 42.4115395,55.8536767 C42.4055053,55.8536825 42.3994711,55.8536825 42.3934369,55.8536766 L3.30118617,55.8156483 C1.24262764,55.8136458 -0.425662966,54.1453517 -0.427661182,52.0867931 L-0.438533191,40.8864738 C-0.440534157,38.825083 1.22893117,37.1523735 3.29032199,37.1503725 C3.29273998,37.1503702 3.29515797,37.1503702 3.29757596,37.1503725 Z" id="Rectangle-Copy-2611" fill="#DB8E73" transform="translate(25.639246, 46.502026) scale(-1, 1) rotate(-69.000000) translate(-25.639246, -46.502026) "></path>
                        <g id="Group-122-Copy" transform="translate(37.789661, 74.566832) scale(-1, 1) translate(-37.789661, -74.566832) translate(22.696263, 59.517209)" fill="#DB8E73">
                            <path d="M11.6338164,4.38049412 L18.4549807,4.37061131 C22.4059775,4.36488693 25.6135337,7.56316213 25.6192581,11.5141589 C25.6192681,11.5210681 25.6192681,11.5279774 25.6192581,11.5348866 L25.6093711,18.3603322 C25.6036596,22.3032367 22.408728,25.4981692 18.4658235,25.5038819 L11.6446593,25.5137647 C7.69366247,25.5194891 4.48610622,22.3212139 4.48038184,18.3702171 C4.48037183,18.3633078 4.48037183,18.3563986 4.48038184,18.3494894 L4.49026884,11.5240438 C4.49598034,7.58113928 7.69091191,4.38620677 11.6338164,4.38049412 Z" id="Rectangle-Copy-2608" transform="translate(15.049820, 14.942188) scale(-1, 1) rotate(-313.000000) translate(-15.049820, -14.942188) "></path>
                        </g>
                        <path d="M-3.96442123,18.4716902 L35.1328882,18.5097234 C40.2792846,18.5147298 44.4500111,22.685465 44.4550066,27.8318613 L44.4550256,27.851428 C44.4600191,32.995698 40.2938123,37.1700008 35.1495423,37.1749943 C35.1435081,37.1750001 35.1374739,37.1750001 35.1314398,37.1749943 L-3.96081102,37.1369659 C-6.01936955,37.1349634 -7.68766015,35.4666693 -7.68965837,33.4081107 L-7.70053038,22.2077915 C-7.70253134,20.1464006 -6.03306601,18.4736911 -3.9716752,18.4716901 C-3.96925721,18.4716878 -3.96683922,18.4716878 -3.96442123,18.4716902 Z" id="Rectangle-Copy-2611" fill="#4B4B4B" transform="translate(18.377249, 27.823344) scale(-1, 1) rotate(-69.000000) translate(-18.377249, -27.823344) "></path>
                    </g>
                    <path d="M24.977836,40.6050596 L34.625889,40.597234 C37.7179757,40.594726 40.2266403,43.0993244 40.2291483,46.191411 C40.2291508,46.1944421 40.2291507,46.1974732 40.2291483,46.2005043 L40.2263917,49.5908502 C40.2238806,52.6793863 37.7207508,55.1825112 34.6322147,55.1850163 L24.9841617,55.1928419 C21.8920751,55.1953499 19.3834104,52.6907515 19.3809024,49.5986648 C19.3809,49.5956338 19.3809,49.5926027 19.3809024,49.5895716 L19.383659,46.1992256 C19.3861701,43.1106895 21.8892999,40.6075647 24.977836,40.6050596 Z" id="Rectangle" fill="#4B4B4B" transform="translate(29.805025, 47.895038) rotate(17.000000) translate(-29.805025, -47.895038) "></path>
                </g>
                <g id="Rectangle-Copy-2612" transform="translate(26.616325, 121.327889)">
                    <mask id="mask-2" fill="white">
                        <use xlink:href="#path-1"></use>
                    </mask>
                    <use id="Mask" fill="#FFBEBE" xlink:href="#path-1"></use>
                </g>
                <g id="Rectangle-Copy-2614" transform="translate(30.973182, 81.609296)">
                    <mask id="mask-4" fill="white">
                        <use xlink:href="#path-3"></use>
                    </mask>
                    <use id="Mask" fill="#4B4B4B" xlink:href="#path-3"></use>
                </g>
                <rect id="Rectangle-Copy-2617" fill="#FFBEBE" x="34.0826092" y="0" width="59.7511833" height="112.460894" rx="29.8755917"></rect>
                <path d="M48.0894061,58.9572864 C58.4353209,74.0586265 72.9444007,79.4264803 91.6166455,75.060848" id="Path-103-Copy-2" stroke="#F2A9A9" stroke-width="4.35456001" stroke-linecap="round" stroke-linejoin="round"></path>
                <g id="Group-121-Copy-6" transform="translate(41.611890, 10.083500)">
                    <rect id="Rectangle" fill="#DB8E73" x="0" y="0" width="44.855191" height="59.2909775" rx="22.4275955"></rect>
                    <g id="Group-2-Copy-36" transform="translate(4.654784, 12.705209)">
                        <rect id="Rectangle-35-Copy-10" fill="#FFFFFF" x="20.3117846" y="0" width="15.2338385" height="21.1753491" rx="7.61691923"></rect>
                        <rect id="Rectangle-35-Copy-10" fill="#FFFFFF" transform="translate(7.616919, 10.587675) scale(-1, 1) translate(-7.616919, -10.587675) " x="0" y="0" width="15.2338385" height="21.1753491" rx="7.61691923"></rect>
                        <rect id="Rectangle-35-Copy-30" fill="#4B4B4B" transform="translate(8.971038, 10.587675) scale(-1, 1) translate(-8.971038, -10.587675) " x="5.75500564" y="5.37786644" width="6.43206513" height="10.4196162" rx="3.21603256"></rect>
                        <rect id="Rectangle-35-Copy-30" fill="#4B4B4B" transform="translate(26.236055, 10.587675) scale(-1, 1) translate(-26.236055, -10.587675) " x="23.0200226" y="5.37786644" width="6.43206513" height="10.4196162" rx="3.21603256"></rect>
                    </g>
                    <path d="M23.5792519,25.3617018 L24.4728446,33.2856605 C24.60023,34.415254 23.7877798,35.4342368 22.6581863,35.5616222 C22.5816057,35.5702582 22.5046006,35.5745865 22.4275346,35.5745865 L22.4275346,35.5745865 C21.2907811,35.5745865 20.3692603,34.6530657 20.3692603,33.5163122 C20.3692603,33.4392462 20.3735886,33.3622411 20.3822247,33.2856605 L21.2758174,25.3617018 C21.3475483,24.7256259 21.9213391,24.2681339 22.5574149,24.3398649 C23.0946692,24.4004516 23.5186652,24.8244475 23.5792519,25.3617018 Z" id="Rectangle-Copy-2576" fill="#B4654A" transform="translate(22.427596, 30.068996) rotate(-360.000000) translate(-22.427596, -30.068996) "></path>
                    <rect id="Rectangle-Copy-2577" fill="#B4654A" transform="translate(22.427596, 34.092312) rotate(-360.000000) translate(-22.427596, -34.092312) " x="18.6191359" y="30.4925027" width="7.61691923" height="7.1996187" rx="3.59980935"></rect>
                    <path d="M21.2359576,39.0572439 C23.993128,39.7066552 26.06039,40.0304006 27.4275304,40.0300426 C28.79313,40.029685 30.7695652,39.7053813 33.3479205,39.0552907 L33.7707301,38.9486861 L33.7704488,40.0237578 C33.7695127,43.6008548 30.8699368,46.5004312 27.2928398,46.5013679 C23.7179668,46.502304 20.8192007,43.6050556 20.8182646,40.0301826 C20.8182644,40.0284882 20.8182644,40.0284882 20.8182646,40.0267938 L20.8185441,38.9589282 L21.2359576,39.0572439 Z" id="Rectangle-Copy-2578" stroke="#FFFFFF" stroke-width="0.679311265" fill="#FFFFFF" stroke-linecap="round" stroke-linejoin="round" transform="translate(27.294440, 42.773176) rotate(-20.000000) translate(-27.294440, -42.773176) "></path>
                </g>
                <rect id="Rectangle" fill="#F2A9A9" x="48.0229354" y="128.464824" width="5.53520266" height="11.4811558" rx="1.03680003"></rect>
                <rect id="Rectangle-Copy-11" fill="#F2A9A9" x="75.4915812" y="128.464824" width="5.53520266" height="11.4811558" rx="1.03680003"></rect>
            </g>
        </g>
    </g>
</svg>